<?xml version="1.0" encoding="utf-8"?>
<!-- Generator: Adobe Illustrator 18.1.1, SVG Export Plug-In . SVG Version: 6.00 Build 0)  -->
<svg version="1.1" id="Layer_1" xmlns="http://www.w3.org/2000/svg" xmlns:xlink="http://www.w3.org/1999/xlink" x="0px" y="0px"
	 viewBox="425 925 150 150" enable-background="new 425 925 150 150" xml:space="preserve">
<g>
	<ellipse fill="#00AEEF" stroke="#00AEEF" stroke-miterlimit="10" cx="529" cy="970.7" rx="30.5" ry="32.5"/>
	<path fill="#00AEEF" stroke="#00AEEF" stroke-miterlimit="10" d="M498,977.7c0,0-32,1.5-64.5-31.5c0,0-9.5,23,8,40
		c0,0-1.5,2.5-10.5-1.5c0,0-2.5,19,21,26.5c0,0-1.5,4.5-11,3.5c0,0,0,13,24,19c0,0,3,17.5-39,15.5c0,0,96.5,54.5,130-62.5
		c0,0,0-19,18-31.5l-14,3.5l14-17.5l-24.5,6L498,977.7z"/>
</g>
</svg>
